<?xml version="1.0" encoding="UTF-8"?>
<svg xmlns="http://www.w3.org/2000/svg" xmlns:xlink="http://www.w3.org/1999/xlink" viewBox="0 0 48 48" width="48px" height="48px">
<g id="surface349659846">
<path style=" stroke:none;fill-rule:nonzero;fill:rgb(100%,100%,100%);fill-opacity:1;" d="M 24 4 C 12.972656 4 4 12.972656 4 24 C 4 35.027344 12.972656 44 24 44 C 35.027344 44 44 35.027344 44 24 C 44 12.972656 35.027344 4 24 4 Z M 24 7 C 33.40625 7 41 14.59375 41 24 C 41 33.40625 33.40625 41 24 41 C 14.59375 41 7 33.40625 7 24 C 7 14.59375 14.59375 7 24 7 Z M 30.488281 15.980469 C 30.089844 15.988281 29.714844 16.152344 29.441406 16.4375 L 24 21.878906 L 18.5625 16.4375 C 18.277344 16.148438 17.890625 15.984375 17.484375 15.984375 C 16.875 15.984375 16.324219 16.355469 16.09375 16.921875 C 15.863281 17.488281 16 18.136719 16.441406 18.558594 L 21.878906 24 L 16.441406 29.4375 C 16.046875 29.816406 15.890625 30.375 16.027344 30.898438 C 16.164062 31.425781 16.574219 31.835938 17.101562 31.972656 C 17.625 32.109375 18.183594 31.953125 18.5625 31.558594 L 24 26.121094 L 29.441406 31.558594 C 29.816406 31.953125 30.375 32.109375 30.898438 31.972656 C 31.425781 31.835938 31.835938 31.425781 31.972656 30.898438 C 32.109375 30.375 31.953125 29.816406 31.5625 29.4375 L 26.121094 24 L 31.5625 18.558594 C 32.007812 18.132812 32.144531 17.472656 31.90625 16.902344 C 31.667969 16.332031 31.105469 15.964844 30.488281 15.976562 Z M 30.488281 15.980469 "/>
</g>
</svg>
