<?xml version="1.0" encoding="UTF-8"?>
<svg xmlns="http://www.w3.org/2000/svg" xmlns:xlink="http://www.w3.org/1999/xlink" viewBox="0 0 48 48" width="48px" height="48px">
<g id="surface44190328">
<path style=" stroke:none;fill-rule:nonzero;fill:rgb(100%,100%,100%);fill-opacity:1;" d="M 5.5 9 C 4.960938 8.992188 4.457031 9.277344 4.183594 9.742188 C 3.910156 10.210938 3.910156 10.789062 4.183594 11.257812 C 4.457031 11.722656 4.960938 12.007812 5.5 12 L 42.5 12 C 43.039062 12.007812 43.542969 11.722656 43.816406 11.257812 C 44.089844 10.789062 44.089844 10.210938 43.816406 9.742188 C 43.542969 9.277344 43.039062 8.992188 42.5 9 Z M 5.5 22.5 C 4.960938 22.492188 4.457031 22.777344 4.183594 23.242188 C 3.910156 23.710938 3.910156 24.289062 4.183594 24.757812 C 4.457031 25.222656 4.960938 25.507812 5.5 25.5 L 42.5 25.5 C 43.039062 25.507812 43.542969 25.222656 43.816406 24.757812 C 44.089844 24.289062 44.089844 23.710938 43.816406 23.242188 C 43.542969 22.777344 43.039062 22.492188 42.5 22.5 Z M 5.5 36 C 4.960938 35.992188 4.457031 36.277344 4.183594 36.742188 C 3.910156 37.210938 3.910156 37.789062 4.183594 38.257812 C 4.457031 38.722656 4.960938 39.007812 5.5 39 L 42.5 39 C 43.039062 39.007812 43.542969 38.722656 43.816406 38.257812 C 44.089844 37.789062 44.089844 37.210938 43.816406 36.742188 C 43.542969 36.277344 43.039062 35.992188 42.5 36 Z M 5.5 36 "/>
</g>
</svg>
