<svg xmlns="http://www.w3.org/2000/svg"  viewBox="0 0 100 100" width="24px" height="24px"><path d="M21.5,85C14.607,85,9,79.393,9,72.5v-41C9,24.607,14.607,19,21.5,19h61C89.393,19,95,24.607,95,31.5	v41C95,79.393,89.393,85,82.5,85H21.5z" opacity=".35"/><path fill="#f2f2f2" d="M19.5,83C12.607,83,7,77.393,7,70.5v-41C7,22.607,12.607,17,19.5,17h61C87.393,17,93,22.607,93,29.5	v41C93,77.393,87.393,83,80.5,83H19.5z"/><polygon fill="#40396e" points="50,55 23,75 23,38" opacity=".35"/><polygon fill="#40396e" points="23,38.5 15,33.5 63,76 81,76 81,31 50,51" opacity=".35"/><path fill="#ff7575" d="M80,25l-0.004,0.005C79.961,25.005,79.928,25,79.893,25H20.107c-0.035,0-0.068,0.005-0.103,0.005	L20,25h-5v51h8V38.422L50,55l27-16.578V76h8V25H80z"/><polygon fill="#40396e" points="23,38.5 15,33.5 23,40.583" opacity=".35"/><polygon fill="#40396e" points="77,38.5 85,33.5 85,75 77,76.5" opacity=".35"/><polygon fill="#f2f2f2" points="20,25 50,46 80,25"/><path fill="#40396e" d="M80.5,78h-61c-4.136,0-7.5-3.364-7.5-7.5v-41c0-4.136,3.364-7.5,7.5-7.5h61	c4.136,0,7.5,3.364,7.5,7.5v41C88,74.636,84.636,78,80.5,78z M19.5,25c-2.481,0-4.5,2.019-4.5,4.5v41c0,2.481,2.019,4.5,4.5,4.5h61	c2.481,0,4.5-2.019,4.5-4.5v-41c0-2.481-2.019-4.5-4.5-4.5H19.5z"/><path fill="#f2f2f2" d="M80.5,76.5h-61c-3.314,0-6-2.686-6-6v-41c0-3.314,2.686-6,6-6h61c3.314,0,6,2.686,6,6v41	C86.5,73.814,83.814,76.5,80.5,76.5z"/><polygon fill="#40396e" points="50,55 23,75 23,38" opacity=".35"/><polygon fill="#40396e" points="23,38.5 15,33.5 63,76 81,76 81,31 50,51" opacity=".35"/><path fill="#ff7575" d="M80,25l-0.004,0.005C79.961,25.005,79.928,25,79.893,25H20.107c-0.035,0-0.068,0.005-0.103,0.005	L20,25h-5v51h8V38.422L50,55l27-16.578V76h8V25H80z"/><polygon fill="#40396e" points="23,38.5 15,33.5 23,40.583" opacity=".35"/><polygon fill="#40396e" points="77,38.5 85,33.5 85,75 77,76.5" opacity=".35"/><polygon fill="#f2f2f2" points="20,25 50,46 80,25"/><path fill="#40396e" d="M80.5,78h-61c-4.136,0-7.5-3.364-7.5-7.5v-41c0-4.136,3.364-7.5,7.5-7.5h61	c4.136,0,7.5,3.364,7.5,7.5v41C88,74.636,84.636,78,80.5,78z M19.5,25c-2.481,0-4.5,2.019-4.5,4.5v41c0,2.481,2.019,4.5,4.5,4.5h61	c2.481,0,4.5-2.019,4.5-4.5v-41c0-2.481-2.019-4.5-4.5-4.5H19.5z"/></svg>