<svg xmlns="http://www.w3.org/2000/svg"  viewBox="0 0 100 100" width="24px" height="24px" baseProfile="basic"><path fill="#1d1d1b" d="M76.4,14.51c-6.57-6.18-15.12-9.58-24.09-9.58c-0.76,0-1.52,0.03-2.28,0.07 C32.15,6.1,17.65,21.01,17.02,38.94c-0.22,6.24-0.03,12.15,4.45,21.29c0.06,0.14,0.14,0.28,0.23,0.43 c3.4,5.74,6.64,10.02,9.24,13.45c1.3,1.72,2.4,3.17,3.32,4.52c0.36,0.54,0.82,1.19,1.35,1.95c2.37,3.38,7.29,10.4,8.37,14.27 c0.94,3.36,4.12,5.71,7.72,5.71c3.47,0,6.38-1.97,7.42-5.03c1.58-4.64,6.01-10.56,8.94-14.49c0.83-1.1,1.61-2.14,2.19-2.98 c0.92-1.34,2-2.7,3.25-4.29c2.33-2.95,5.2-6.6,8.68-12.07l0.06-0.1l0.06-0.1c4.57-7.97,5.2-14.95,5.2-21.31 C87.5,30.5,83.45,21.14,76.4,14.51z M77.96,59.02c-3.35,5.27-6.14,8.81-8.39,11.65c-1.31,1.66-2.44,3.09-3.44,4.55 c-0.51,0.75-1.23,1.71-2.06,2.82c-2.94,3.93-7.29,9.75-9.33,14.91c-0.13,0.32-0.25,0.65-0.36,0.97c-0.34,1.01-1.37,1.64-2.68,1.64 c-1.37,0-2.56-0.84-2.9-2.05c-1.31-4.7-6.38-11.92-9.1-15.8c-0.51-0.73-0.96-1.37-1.31-1.89c-0.99-1.47-2.14-2.98-3.46-4.73 c-2.53-3.33-5.67-7.49-8.92-12.95c-0.02-0.04-0.03-0.07-0.05-0.11c-3.98-8.11-4.14-13.16-3.94-18.92 C22.55,23.72,35,10.94,50.35,9.99c0.65-0.04,1.31-0.06,1.96-0.06c7.73,0,15,2.89,20.66,8.22c6.06,5.69,9.53,13.73,9.53,22.04 C82.5,45.47,82.15,51.71,77.96,59.02z" opacity=".35"/><path fill="#de5147" d="M40.75,31.23l-2.67,3.15l-0.84,0.98L23.59,51.44c-0.04-0.09-0.07-0.18-0.1-0.26 c-2.05-5.47-2.13-9.51-1.97-14.02c0.23-6.34,2.55-12.21,6.31-16.9l12.56,10.66L40.75,31.23z"/><path fill="#2785bd" d="M58.16,10.54L40.73,31.07L40,31L27,20c4.93-6.09,13.18-10,21.44-10.51c3.25-0.2,6.39,0.14,9.34,0.95 C57.91,10.46,58.03,10.5,58.16,10.54z"/><path fill="#96c362" d="M79,37.19c0,5.57-0.48,11.35-4.34,18.08c-5.16,8.11-8.94,12-11.77,16.1 c-2.37,3.45-9.5,11.96-11.93,19.07c-0.16,0.47-0.76,0.62-1.26,0.62c-0.64,0-1.28-0.34-1.46-0.96c-1.61-5.8-8.27-14.68-10.61-18.12 c-0.03-0.04-0.06-0.09-0.09-0.13c-0.07-0.11-0.14-0.21-0.22-0.32l18.3-21.55l0.84-0.99l20.02-23.58c0.52,2.59,0.05,0.1,0.06,0.15 C78.13,29.11,79,33.05,79,37.19z"/><path fill="#f9b84f" d="M37,72c-0.07-0.11-12.95-19.33-13.41-20.56c-0.04-0.09-0.07-0.18-0.1-0.26L41,30 c0,0-1.14,7.99-1.14,8.19c0,5.73,4.65,10.39,10.39,10.39c0.78,0,1.53-0.09,2.26-0.25c0.51-0.11,1.01-0.26,1.48-0.45L60,45L37,72z"/><path fill="#70bfff" d="M77,26L59,47l-6.49,1.33c0.51-0.11,1.01-0.26,1.48-0.45c3.89-1.5,6.65-5.28,6.65-9.69 c0-5.74-4.65-10.39-10.39-10.39c-5.02,0-9.2,3.55-10.17,8.28c-0.11,0.49-0.17,1-0.21,1.52l0.59-6.76l17.32-20.4 c0.13,0.02,0.25,0.06,0.38,0.1C66.35,12.87,71.56,15.34,75,23C75.03,23.05,76.99,25.95,77,26z"/><path fill="none" d="M50.25,33.5c-2.21,0-4.14,1.57-4.59,3.72v0.05l-0.01,0.04c-0.04,0.14-0.06,0.33-0.08,0.58l-0.01,0.33 c0.02,2.53,2.15,4.66,4.67,4.66c0.35,0,0.7-0.04,1.08-0.12c0.25-0.06,0.43-0.12,0.53-0.16l0.04-0.01l0.04-0.02 c1.81-0.7,3.02-2.46,3.02-4.38C54.94,35.6,52.84,33.5,50.25,33.5z M50.25,33.5c-2.21,0-4.14,1.57-4.59,3.72v0.05l-0.01,0.04 c-0.04,0.14-0.06,0.33-0.08,0.58l-0.01,0.33c0.02,2.53,2.15,4.66,4.67,4.66c0.35,0,0.7-0.04,1.08-0.12 c0.25-0.06,0.43-0.12,0.53-0.16l0.04-0.01l0.04-0.02c1.81-0.7,3.02-2.46,3.02-4.38C54.94,35.6,52.84,33.5,50.25,33.5z M50.25,33.5 c-2.21,0-4.14,1.57-4.59,3.72v0.05l-0.01,0.04c-0.04,0.14-0.06,0.33-0.08,0.58l-0.01,0.33c0.02,2.53,2.15,4.66,4.67,4.66 c0.35,0,0.7-0.04,1.08-0.12c0.25-0.06,0.43-0.12,0.53-0.16l0.04-0.01l0.04-0.02c1.81-0.7,3.02-2.46,3.02-4.38 C54.94,35.6,52.84,33.5,50.25,33.5z M75.07,26.85c0-0.01,0-0.01,0-0.01 M50.25,33.5c-2.21,0-4.14,1.57-4.59,3.72v0.05l-0.01,0.04 c-0.04,0.14-0.06,0.33-0.08,0.58l-0.01,0.33c0.02,2.53,2.15,4.66,4.67,4.66c0.35,0,0.7-0.04,1.08-0.12 c0.25-0.06,0.43-0.12,0.53-0.16l0.04-0.01l0.04-0.02c1.81-0.7,3.02-2.46,3.02-4.38C54.94,35.6,52.84,33.5,50.25,33.5z M50.25,33.5 c-2.21,0-4.14,1.57-4.59,3.72v0.05l-0.01,0.04c-0.04,0.14-0.06,0.33-0.08,0.58l-0.01,0.33c0.02,2.53,2.15,4.66,4.67,4.66 c0.35,0,0.7-0.04,1.08-0.12c0.25-0.06,0.43-0.12,0.53-0.16l0.04-0.01l0.04-0.02c1.81-0.7,3.02-2.46,3.02-4.38 C54.94,35.6,52.84,33.5,50.25,33.5z M50.25,33.5c-2.21,0-4.14,1.57-4.59,3.72v0.05l-0.01,0.04c-0.04,0.14-0.06,0.33-0.08,0.58 l-0.01,0.33c0.02,2.53,2.15,4.66,4.67,4.66c0.35,0,0.7-0.04,1.08-0.12c0.25-0.06,0.43-0.12,0.53-0.16l0.04-0.01l0.04-0.02 c1.81-0.7,3.02-2.46,3.02-4.38C54.94,35.6,52.84,33.5,50.25,33.5z M50.25,33.5c-2.21,0-4.14,1.57-4.59,3.72v0.05l-0.01,0.04 c-0.04,0.14-0.06,0.33-0.08,0.58l-0.01,0.33c0.02,2.53,2.15,4.66,4.67,4.66c0.35,0,0.7-0.04,1.08-0.12 c0.25-0.06,0.43-0.12,0.53-0.16l0.04-0.01l0.04-0.02c1.81-0.7,3.02-2.46,3.02-4.38C54.94,35.6,52.84,33.5,50.25,33.5z M50.25,33.5 c-2.21,0-4.14,1.57-4.59,3.72v0.05l-0.01,0.04c-0.04,0.14-0.06,0.33-0.08,0.58l-0.01,0.33c0.02,2.53,2.15,4.66,4.67,4.66 c0.35,0,0.7-0.04,1.08-0.12c0.25-0.06,0.43-0.12,0.53-0.16l0.04-0.01l0.04-0.02c1.81-0.7,3.02-2.46,3.02-4.38 C54.94,35.6,52.84,33.5,50.25,33.5z M50.25,33.5c-2.21,0-4.14,1.57-4.59,3.72v0.05l-0.01,0.04c-0.04,0.14-0.06,0.33-0.08,0.58 l-0.01,0.33c0.02,2.53,2.15,4.66,4.67,4.66c0.35,0,0.7-0.04,1.08-0.12c0.25-0.06,0.43-0.12,0.53-0.16l0.04-0.01l0.04-0.02 c1.81-0.7,3.02-2.46,3.02-4.38C54.94,35.6,52.84,33.5,50.25,33.5z M50.25,33.5c-2.21,0-4.14,1.57-4.59,3.72v0.05l-0.01,0.04 c-0.04,0.14-0.06,0.33-0.08,0.58l-0.01,0.33c0.02,2.53,2.15,4.66,4.67,4.66c0.35,0,0.7-0.04,1.08-0.12 c0.25-0.06,0.43-0.12,0.53-0.16l0.04-0.01l0.04-0.02c1.81-0.7,3.02-2.46,3.02-4.38C54.94,35.6,52.84,33.5,50.25,33.5z M50.25,33.5 c-2.21,0-4.14,1.57-4.59,3.72v0.05l-0.01,0.04c-0.04,0.14-0.06,0.33-0.08,0.58l-0.01,0.33c0.02,2.53,2.15,4.66,4.67,4.66 c0.35,0,0.7-0.04,1.08-0.12c0.25-0.06,0.43-0.12,0.53-0.16l0.04-0.01l0.04-0.02c1.81-0.7,3.02-2.46,3.02-4.38 C54.94,35.6,52.84,33.5,50.25,33.5z M50.25,33.5c-2.21,0-4.14,1.57-4.59,3.72v0.05l-0.01,0.04c-0.04,0.14-0.06,0.33-0.08,0.58 l-0.01,0.33c0.02,2.53,2.15,4.66,4.67,4.66c0.35,0,0.7-0.04,1.08-0.12c0.25-0.06,0.43-0.12,0.53-0.16l0.04-0.01l0.04-0.02 c1.81-0.7,3.02-2.46,3.02-4.38C54.94,35.6,52.84,33.5,50.25,33.5z M50.25,33.5c-2.21,0-4.14,1.57-4.59,3.72v0.05l-0.01,0.04 c-0.04,0.14-0.06,0.33-0.08,0.58l-0.01,0.33c0.02,2.53,2.15,4.66,4.67,4.66c0.35,0,0.7-0.04,1.08-0.12 c0.25-0.06,0.43-0.12,0.53-0.16l0.04-0.01l0.04-0.02c1.81-0.7,3.02-2.46,3.02-4.38C54.94,35.6,52.84,33.5,50.25,33.5z M50.25,33.5 c-2.21,0-4.14,1.57-4.59,3.72v0.05l-0.01,0.04c-0.04,0.14-0.06,0.33-0.08,0.58l-0.01,0.33c0.02,2.53,2.15,4.66,4.67,4.66 c0.35,0,0.7-0.04,1.08-0.12c0.25-0.06,0.43-0.12,0.53-0.16l0.04-0.01l0.04-0.02c1.81-0.7,3.02-2.46,3.02-4.38 C54.94,35.6,52.84,33.5,50.25,33.5z M50.25,33.5c-2.21,0-4.14,1.57-4.59,3.72v0.05l-0.01,0.04c-0.04,0.14-0.06,0.33-0.08,0.58 l-0.01,0.33c0.02,2.53,2.15,4.66,4.67,4.66c0.35,0,0.7-0.04,1.08-0.12c0.25-0.06,0.43-0.12,0.53-0.16l0.04-0.01l0.04-0.02 c1.81-0.7,3.02-2.46,3.02-4.38C54.94,35.6,52.84,33.5,50.25,33.5z M50.25,33.5c-2.21,0-4.14,1.57-4.59,3.72v0.05l-0.01,0.04 c-0.04,0.14-0.06,0.33-0.08,0.58l-0.01,0.33c0.02,2.53,2.15,4.66,4.67,4.66c0.35,0,0.7-0.04,1.08-0.12 c0.25-0.06,0.43-0.12,0.53-0.16l0.04-0.01l0.04-0.02c1.81-0.7,3.02-2.46,3.02-4.38C54.94,35.6,52.84,33.5,50.25,33.5z M50.25,33.5 c-2.21,0-4.14,1.57-4.59,3.72v0.05l-0.01,0.04c-0.04,0.14-0.06,0.33-0.08,0.58l-0.01,0.33c0.02,2.53,2.15,4.66,4.67,4.66 c0.35,0,0.7-0.04,1.08-0.12c0.25-0.06,0.43-0.12,0.53-0.16l0.04-0.01l0.04-0.02c1.81-0.7,3.02-2.46,3.02-4.38 C54.94,35.6,52.84,33.5,50.25,33.5z M50.25,33.5c-2.21,0-4.14,1.57-4.59,3.72v0.05l-0.01,0.04c-0.04,0.14-0.06,0.33-0.08,0.58 l-0.01,0.33c0.02,2.53,2.15,4.66,4.67,4.66c0.35,0,0.7-0.04,1.08-0.12c0.25-0.06,0.43-0.12,0.53-0.16l0.04-0.01l0.04-0.02 c1.81-0.7,3.02-2.46,3.02-4.38C54.94,35.6,52.84,33.5,50.25,33.5z M50.25,33.5c-2.21,0-4.14,1.57-4.59,3.72v0.05l-0.01,0.04 c-0.04,0.14-0.06,0.33-0.08,0.58l-0.01,0.33c0.02,2.53,2.15,4.66,4.67,4.66c0.35,0,0.7-0.04,1.08-0.12 c0.25-0.06,0.43-0.12,0.53-0.16l0.04-0.01l0.04-0.02c1.81-0.7,3.02-2.46,3.02-4.38C54.94,35.6,52.84,33.5,50.25,33.5z M50.25,33.5 c-2.21,0-4.14,1.57-4.59,3.72v0.05l-0.01,0.04c-0.04,0.14-0.06,0.33-0.08,0.58l-0.01,0.33c0.02,2.53,2.15,4.66,4.67,4.66 c0.35,0,0.7-0.04,1.08-0.12c0.25-0.06,0.43-0.12,0.53-0.16l0.04-0.01l0.04-0.02c1.81-0.7,3.02-2.46,3.02-4.38 C54.94,35.6,52.84,33.5,50.25,33.5z M50.25,33.5c-2.21,0-4.14,1.57-4.59,3.72v0.05l-0.01,0.04c-0.04,0.14-0.06,0.33-0.08,0.58 l-0.01,0.33c0.02,2.53,2.15,4.66,4.67,4.66c0.35,0,0.7-0.04,1.08-0.12c0.25-0.06,0.43-0.12,0.53-0.16l0.04-0.01l0.04-0.02 c1.81-0.7,3.02-2.46,3.02-4.38C54.94,35.6,52.84,33.5,50.25,33.5z M50.25,33.5c-2.21,0-4.14,1.57-4.59,3.72v0.05l-0.01,0.04 c-0.04,0.14-0.06,0.33-0.08,0.58l-0.01,0.33c0.02,2.53,2.15,4.66,4.67,4.66c0.35,0,0.7-0.04,1.08-0.12 c0.25-0.06,0.43-0.12,0.53-0.16l0.04-0.01l0.04-0.02c1.81-0.7,3.02-2.46,3.02-4.38C54.94,35.6,52.84,33.5,50.25,33.5z M50.25,33.5 c-2.21,0-4.14,1.57-4.59,3.72v0.05l-0.01,0.04c-0.04,0.14-0.06,0.33-0.08,0.58l-0.01,0.33c0.02,2.53,2.15,4.66,4.67,4.66 c0.35,0,0.7-0.04,1.08-0.12c0.25-0.06,0.43-0.12,0.53-0.16l0.04-0.01l0.04-0.02c1.81-0.7,3.02-2.46,3.02-4.38 C54.94,35.6,52.84,33.5,50.25,33.5z M50.25,33.5c-2.21,0-4.14,1.57-4.59,3.72v0.05l-0.01,0.04c-0.04,0.14-0.06,0.33-0.08,0.58 l-0.01,0.33c0.02,2.53,2.15,4.66,4.67,4.66c0.35,0,0.7-0.04,1.08-0.12c0.25-0.06,0.43-0.12,0.53-0.16l0.04-0.01l0.04-0.02 c1.81-0.7,3.02-2.46,3.02-4.38C54.94,35.6,52.84,33.5,50.25,33.5z M50.25,33.5c-2.21,0-4.14,1.57-4.59,3.72v0.05l-0.01,0.04 c-0.04,0.14-0.06,0.33-0.08,0.58l-0.01,0.33c0.02,2.53,2.15,4.66,4.67,4.66c0.35,0,0.7-0.04,1.08-0.12 c0.25-0.06,0.43-0.12,0.53-0.16l0.04-0.01l0.04-0.02c1.81-0.7,3.02-2.46,3.02-4.38C54.94,35.6,52.84,33.5,50.25,33.5z M50.25,33.5 c-2.21,0-4.14,1.57-4.59,3.72v0.05l-0.01,0.04c-0.04,0.14-0.06,0.33-0.08,0.58l-0.01,0.33c0.02,2.53,2.15,4.66,4.67,4.66 c0.35,0,0.7-0.04,1.08-0.12c0.25-0.06,0.43-0.12,0.53-0.16l0.04-0.01l0.04-0.02c1.81-0.7,3.02-2.46,3.02-4.38 C54.94,35.6,52.84,33.5,50.25,33.5z M50.25,33.5c-2.21,0-4.14,1.57-4.59,3.72v0.05l-0.01,0.04c-0.04,0.14-0.06,0.33-0.08,0.58 l-0.01,0.33c0.02,2.53,2.15,4.66,4.67,4.66c0.35,0,0.7-0.04,1.08-0.12c0.25-0.06,0.43-0.12,0.53-0.16l0.04-0.01l0.04-0.02 c1.81-0.7,3.02-2.46,3.02-4.38C54.94,35.6,52.84,33.5,50.25,33.5z M50.25,33.5c-2.21,0-4.14,1.57-4.59,3.72v0.05l-0.01,0.04 c-0.04,0.14-0.06,0.33-0.08,0.58l-0.01,0.33c0.02,2.53,2.15,4.66,4.67,4.66c0.35,0,0.7-0.04,1.08-0.12 c0.25-0.06,0.43-0.12,0.53-0.16l0.04-0.01l0.04-0.02c1.81-0.7,3.02-2.46,3.02-4.38C54.94,35.6,52.84,33.5,50.25,33.5z M50.25,33.5 c-2.21,0-4.14,1.57-4.59,3.72v0.05l-0.01,0.04c-0.04,0.14-0.06,0.33-0.08,0.58l-0.01,0.33c0.02,2.53,2.15,4.66,4.67,4.66 c0.35,0,0.7-0.04,1.08-0.12c0.25-0.06,0.43-0.12,0.53-0.16l0.04-0.01l0.04-0.02c1.81-0.7,3.02-2.46,3.02-4.38 C54.94,35.6,52.84,33.5,50.25,33.5z M50.25,33.5c-2.21,0-4.14,1.57-4.59,3.72v0.05l-0.01,0.04c-0.04,0.14-0.06,0.33-0.08,0.58 l-0.01,0.33c0.02,2.53,2.15,4.66,4.67,4.66c0.35,0,0.7-0.04,1.08-0.12c0.25-0.06,0.43-0.12,0.53-0.16l0.04-0.01l0.04-0.02 c1.81-0.7,3.02-2.46,3.02-4.38C54.94,35.6,52.84,33.5,50.25,33.5z M50.25,33.5c-2.21,0-4.14,1.57-4.59,3.72v0.05l-0.01,0.04 c-0.04,0.14-0.06,0.33-0.08,0.58l-0.01,0.33c0.02,2.53,2.15,4.66,4.67,4.66c0.35,0,0.7-0.04,1.08-0.12 c0.25-0.06,0.43-0.12,0.53-0.16l0.04-0.01l0.04-0.02c1.81-0.7,3.02-2.46,3.02-4.38C54.94,35.6,52.84,33.5,50.25,33.5z M50.25,33.5 c-2.21,0-4.14,1.57-4.59,3.72v0.05l-0.01,0.04c-0.04,0.14-0.06,0.33-0.08,0.58l-0.01,0.33c0.02,2.53,2.15,4.66,4.67,4.66 c0.35,0,0.7-0.04,1.08-0.12c0.25-0.06,0.43-0.12,0.53-0.16l0.04-0.01l0.04-0.02c1.81-0.7,3.02-2.46,3.02-4.38 C54.94,35.6,52.84,33.5,50.25,33.5z M50.25,33.5c-2.21,0-4.14,1.57-4.59,3.72v0.05l-0.01,0.04c-0.04,0.14-0.06,0.33-0.08,0.58 l-0.01,0.33c0.02,2.53,2.15,4.66,4.67,4.66c0.35,0,0.7-0.04,1.08-0.12c0.25-0.06,0.43-0.12,0.53-0.16l0.04-0.01l0.04-0.02 c1.81-0.7,3.02-2.46,3.02-4.38C54.94,35.6,52.84,33.5,50.25,33.5z M50.25,33.5c-2.21,0-4.14,1.57-4.59,3.72v0.05l-0.01,0.04 c-0.04,0.14-0.06,0.33-0.08,0.58l-0.01,0.33c0.02,2.53,2.15,4.66,4.67,4.66c0.35,0,0.7-0.04,1.08-0.12 c0.25-0.06,0.43-0.12,0.53-0.16l0.04-0.01l0.04-0.02c1.81-0.7,3.02-2.46,3.02-4.38C54.94,35.6,52.84,33.5,50.25,33.5z M50.25,33.5 c-2.21,0-4.14,1.57-4.59,3.72v0.05l-0.01,0.04c-0.04,0.14-0.06,0.33-0.08,0.58l-0.01,0.33c0.02,2.53,2.15,4.66,4.67,4.66 c0.35,0,0.7-0.04,1.08-0.12c0.25-0.06,0.43-0.12,0.53-0.16l0.04-0.01l0.04-0.02c1.81-0.7,3.02-2.46,3.02-4.38 C54.94,35.6,52.84,33.5,50.25,33.5z M50.25,33.5c-2.21,0-4.14,1.57-4.59,3.72v0.05l-0.01,0.04c-0.04,0.14-0.06,0.33-0.08,0.58 l-0.01,0.33c0.02,2.53,2.15,4.66,4.67,4.66c0.35,0,0.7-0.04,1.08-0.12c0.25-0.06,0.43-0.12,0.53-0.16l0.04-0.01l0.04-0.02 c1.81-0.7,3.02-2.46,3.02-4.38C54.94,35.6,52.84,33.5,50.25,33.5z M50.25,33.5c-2.21,0-4.14,1.57-4.59,3.72v0.05l-0.01,0.04 c-0.04,0.14-0.06,0.33-0.08,0.58l-0.01,0.33c0.02,2.53,2.15,4.66,4.67,4.66c0.35,0,0.7-0.04,1.08-0.12 c0.25-0.06,0.43-0.12,0.53-0.16l0.04-0.01l0.04-0.02c1.81-0.7,3.02-2.46,3.02-4.38C54.94,35.6,52.84,33.5,50.25,33.5z"/><path fill="#f2f2f2" d="M62,38.19c0,4.819-3.025,9.228-7.519,10.961c-0.503,0.201-1.083,0.379-1.694,0.511 c-0.859,0.186-1.686,0.278-2.537,0.278c-6.482,0-11.75-5.268-11.75-11.75l0.008-0.526c0-0.046,0-0.124,0.008-0.201 c0.054-0.665,0.131-1.207,0.24-1.709c1.106-5.384,5.941-9.313,11.495-9.313C56.732,26.44,62,31.708,62,38.19z"/><path fill="#40396e" d="M50.249,27.798c5.738,0,10.389,4.651,10.389,10.389s-4.651,10.389-10.389,10.389 c-5.738,0-10.389-4.651-10.389-10.389S44.512,27.798,50.249,27.798 M50.249,24.798c-7.383,0-13.389,6.006-13.389,13.389 s6.006,13.389,13.389,13.389c7.383,0,13.389-6.006,13.389-13.389S57.632,24.798,50.249,24.798L50.249,24.798z"/><path fill="#40396e" d="M70.97,16.15c-5.66-5.33-12.93-8.22-20.66-8.22c-0.65,0-1.31,0.02-1.96,0.06 C33,8.94,20.55,21.72,20.02,37.11c-0.2,5.76-0.04,10.81,3.94,18.92c0.02,0.04,0.03,0.07,0.05,0.11c3.25,5.46,6.39,9.62,8.92,12.95 c1.32,1.75,2.47,3.26,3.46,4.73c0.35,0.52,0.8,1.16,1.31,1.89c2.72,3.88,7.79,11.1,9.1,15.8c0.34,1.21,1.53,2.05,2.9,2.05 c1.31,0,2.34-0.63,2.68-1.64c0.11-0.32,0.23-0.65,0.36-0.97c2.04-5.16,6.39-10.98,9.33-14.91c0.83-1.11,1.55-2.07,2.06-2.82 c1-1.46,2.13-2.89,3.44-4.55c2.25-2.84,5.04-6.38,8.39-11.65c4.19-7.31,4.54-13.55,4.54-18.83C80.5,29.88,77.03,21.84,70.97,16.15z M73.39,55.47c-3.23,5.08-5.85,8.41-8.17,11.35c-1.34,1.69-2.5,3.16-3.56,4.7c-0.49,0.71-1.18,1.64-2,2.73 c-3.16,4.23-7.9,10.57-9.98,16.31h-0.03c-1.5-5.18-6.49-12.3-9.49-16.58c-0.5-0.71-0.94-1.34-1.28-1.85 c-1.05-1.53-2.27-3.14-3.56-4.85c-2.6-3.43-5.55-7.33-8.7-12.62c-3.64-7.46-3.79-12.12-3.6-17.44 c0.48-13.86,11.69-25.38,25.51-26.23c0.58-0.04,1.16-0.05,1.73-0.05c6.97,0,13.55,2.59,18.66,7.39c5.53,5.21,8.58,12.26,8.58,19.86 C77.5,43.08,77.18,48.86,73.39,55.47z"/><path fill="#f2f2f2" d="M74.4,12.51c-6.57-6.18-15.12-9.58-24.09-9.58c-0.76,0-1.52,0.03-2.28,0.07 C30.15,4.1,15.65,19.01,15.02,36.94c-0.22,6.24-0.03,12.15,4.45,21.29c0.06,0.14,0.14,0.28,0.23,0.43 c3.4,5.74,6.64,10.02,9.24,13.45c1.3,1.72,2.4,3.17,3.32,4.52c0.36,0.54,0.82,1.19,1.35,1.95c2.37,3.38,7.29,10.4,8.37,14.27 c0.94,3.36,4.12,5.71,7.72,5.71c3.47,0,6.38-1.97,7.42-5.03c1.58-4.64,6.01-10.56,8.94-14.49c0.83-1.1,1.61-2.14,2.19-2.98 c0.92-1.34,2-2.7,3.25-4.29c2.33-2.95,5.2-6.6,8.68-12.07l0.06-0.1l0.06-0.1c4.57-7.97,5.2-14.95,5.2-21.31 C85.5,28.5,81.45,19.14,74.4,12.51z M75.96,57.02c-3.35,5.27-6.14,8.81-8.39,11.65c-1.31,1.66-2.44,3.09-3.44,4.55 c-0.51,0.75-1.23,1.71-2.06,2.82c-2.94,3.93-7.29,9.75-9.33,14.91c-0.13,0.32-0.25,0.65-0.36,0.97c-0.34,1.01-1.37,1.64-2.68,1.64 c-1.37,0-2.56-0.84-2.9-2.05c-1.31-4.7-6.38-11.92-9.1-15.8c-0.51-0.73-0.96-1.37-1.31-1.89c-0.99-1.47-2.14-2.98-3.46-4.73 c-2.53-3.33-5.67-7.49-8.92-12.95c-0.02-0.04-0.03-0.07-0.05-0.11c-3.98-8.11-4.14-13.16-3.94-18.92 C20.55,21.72,33,8.94,48.35,7.99c0.65-0.04,1.31-0.06,1.96-0.06c7.73,0,15,2.89,20.66,8.22c6.06,5.69,9.53,13.73,9.53,22.04 C80.5,43.47,80.15,49.71,75.96,57.02z"/></svg>